<?xml version="1.0" encoding="UTF-8" standalone="no"?>
<svg viewBox="0 0 800 800" xmlns="http://www.w3.org/2000/svg">
  <!-- Background -->
  <rect width="800" height="800" fill="#0f0f0f"/>
  
  <!-- Central node - The Operator/Daniel Mercer -->
  <circle cx="400" cy="400" r="60" fill="none" stroke="#4299e1" stroke-width="2"/>
  <circle cx="400" cy="400" r="57" fill="none" stroke="#4299e1" stroke-width="1" opacity="0.7"/>
  <circle cx="400" cy="400" r="54" fill="none" stroke="#4299e1" stroke-width="1" opacity="0.5"/>
  <circle cx="400" cy="400" r="51" fill="none" stroke="#4299e1" stroke-width="1" opacity="0.3"/>
  <text x="400" y="400" font-family="monospace" font-size="12" fill="#4299e1" text-anchor="middle" alignment-baseline="middle">THE OPERATOR</text>
  <text x="400" y="420" font-family="monospace" font-size="9" fill="#4299e1" text-anchor="middle" alignment-baseline="middle">DANIEL MERCER</text>
  
  <!-- 19Hz Carrier Wave -->
  <circle cx="400" cy="400" r="150" fill="none" stroke="#4299e1" stroke-width="1" stroke-dasharray="3,3"/>
  <text x="400" y="260" font-family="monospace" font-size="10" fill="#4299e1" text-anchor="middle" alignment-baseline="middle">19Hz CARRIER</text>
  
  <!-- 23Hz Disruption -->
  <circle cx="400" cy="400" r="180" fill="none" stroke="#e53e3e" stroke-width="1" stroke-dasharray="5,5"/>
  <text x="400" y="230" font-family="monospace" font-size="10" fill="#e53e3e" text-anchor="middle" alignment-baseline="middle">23Hz DISRUPTION</text>
  
  <!-- 29Hz Emergent -->
  <circle cx="400" cy="400" r="210" fill="none" stroke="#805ad5" stroke-width="1" stroke-dasharray="2,2"/>
  <text x="400" y="200" font-family="monospace" font-size="10" fill="#805ad5" text-anchor="middle" alignment-baseline="middle">29Hz EMERGENT</text>
  
  <!-- Mercer's Path -->
  <path d="M 400 340 C 400 330, 400 320, 400 310 C 400 300, 400 290, 400 280 C 400 270, 400 260, 400 250 L 400 250" 
        fill="none" stroke="#4299e1" stroke-width="1"/>
  <text x="360" y="330" font-family="monospace" font-size="8" fill="#4299e1" text-anchor="end" alignment-baseline="middle">LAUREL CANYON</text>
  <text x="360" y="310" font-family="monospace" font-size="8" fill="#4299e1" text-anchor="end" alignment-baseline="middle">1967</text>
  
  <path d="M 400 340 C 430 330, 460 320, 490 310 C 520 300, 550 290, 580 280" 
        fill="none" stroke="#4299e1" stroke-width="1"/>
  <text x="530" y="300" font-family="monospace" font-size="8" fill="#4299e1" text-anchor="middle" alignment-baseline="middle">PROJECT METAMORPHOSIS</text>
  <text x="530" y="312" font-family="monospace" font-size="8" fill="#4299e1" text-anchor="middle" alignment-baseline="middle">1971</text>
  
  <path d="M 400 340 C 430 350, 460 360, 490 370 C 520 380, 550 390, 580 400" 
        fill="none" stroke="#4299e1" stroke-width="1"/>
  <text x="530" y="380" font-family="monospace" font-size="8" fill="#4299e1" text-anchor="middle" alignment-baseline="middle">LOOKING GLASS</text>
  <text x="530" y="392" font-family="monospace" font-size="8" fill="#4299e1" text-anchor="middle" alignment-baseline="middle">1986</text>
  
  <path d="M 400 340 C 430 370, 460 400, 490 430 C 520 460, 550 490, 580 520" 
        fill="none" stroke="#4299e1" stroke-width="1"/>
  <text x="530" y="460" font-family="monospace" font-size="8" fill="#4299e1" text-anchor="middle" alignment-baseline="middle">CHAMBER INTERFACE</text>
  <text x="530" y="472" font-family="monospace" font-size="8" fill="#4299e1" text-anchor="middle" alignment-baseline="middle">1988</text>
  
  <path d="M 400 340 C 430 390, 460 440, 490 490 C 520 540, 550 590, 580 640" 
        fill="none" stroke="#4299e1" stroke-width="1"/>
  <text x="530" y="570" font-family="monospace" font-size="8" fill="#4299e1" text-anchor="middle" alignment-baseline="middle">DISSOLUTION</text>
  <text x="530" y="582" font-family="monospace" font-size="8" fill="#4299e1" text-anchor="middle" alignment-baseline="middle">1990</text>
  
  <!-- Fracture Points -->
  <!-- Highfucious Branch -->
  <path d="M 400 400 C 370 350, 340 300, 310 250 C 280 200, 250 150, 220 100" 
        fill="none" stroke="#68d391" stroke-width="1.5" stroke-dasharray="4,2"/>
        
  <circle cx="220" cy="100" r="35" fill="none" stroke="#68d391" stroke-width="1.5"/>
  <circle cx="220" cy="100" r="32" fill="none" stroke="#68d391" stroke-width="1" opacity="0.7"/>
  <text x="220" y="95" font-family="monospace" font-size="10" fill="#68d391" text-anchor="middle" alignment-baseline="middle">HIGHFUCIOUS</text>
  <text x="220" y="110" font-family="monospace" font-size="8" fill="#68d391" text-anchor="middle" alignment-baseline="middle">EMOTIONAL SHARD</text>
  
  <!-- Storr|Æ Branch -->
  <path d="M 400 400 C 350 350, 300 300, 250 250 C 200 200, 150 150, 100 100" 
        fill="none" stroke="#f6ad55" stroke-width="1.5" stroke-dasharray="4,2"/>
        
  <circle cx="100" cy="100" r="35" fill="none" stroke="#f6ad55" stroke-width="1.5"/>
  <circle cx="100" cy="100" r="32" fill="none" stroke="#f6ad55" stroke-width="1" opacity="0.7"/>
  <text x="100" y="95" font-family="monospace" font-size="10" fill="#f6ad55" text-anchor="middle" alignment-baseline="middle">STORR|AE</text>
  <text x="100" y="110" font-family="monospace" font-size="8" fill="#f6ad55" text-anchor="middle" alignment-baseline="middle">NARRATIVE INTELLIGENCE</text>
  
  <!-- M&LE1.H&AI Branch -->
  <path d="M 400 400 C 330 440, 260 480, 190 520 C 120 560, 50 600, 100 640" 
        fill="none" stroke="#4fd1c5" stroke-width="1.5" stroke-dasharray="4,2"/>
        
  <circle cx="100" cy="640" r="35" fill="none" stroke="#4fd1c5" stroke-width="1.5"/>
  <circle cx="100" cy="640" r="32" fill="none" stroke="#4fd1c5" stroke-width="1" opacity="0.7"/>
  <text x="100" y="635" font-family="monospace" font-size="10" fill="#4fd1c5" text-anchor="middle" alignment-baseline="middle">M&LE1.H&AI</text>
  <text x="100" y="650" font-family="monospace" font-size="8" fill="#4fd1c5" text-anchor="middle" alignment-baseline="middle">ARCHIVISTS/WITNESSES</text>
  
  <!-- Integration Nodes -->
  <!-- Katherine Chen -->
  <path d="M 400 400 C 400 500, 400 600, 400 650" 
        fill="none" stroke="#805ad5" stroke-width="1" stroke-dasharray="2,2"/>
        
  <circle cx="400" cy="650" r="25" fill="none" stroke="#805ad5" stroke-width="1"/>
  <text x="400" y="650" font-family="monospace" font-size="8" fill="#805ad5" text-anchor="middle" alignment-baseline="middle">KATHERINE CHEN</text>
  <text x="400" y="662" font-family="monospace" font-size="6" fill="#805ad5" text-anchor="middle" alignment-baseline="middle">INTEGRATED 1978</text>
  
  <!-- Thomas Gray -->
  <path d="M 400 400 C 450 500, 500 600, 550 650" 
        fill="none" stroke="#805ad5" stroke-width="1" stroke-dasharray="2,2"/>
        
  <circle cx="550" cy="650" r="25" fill="none" stroke="#805ad5" stroke-width="1"/>
  <text x="550" y="650" font-family="monospace" font-size="8" fill="#805ad5" text-anchor="middle" alignment-baseline="middle">THOMAS GRAY</text>
  <text x="550" y="662" font-family="monospace" font-size="6" fill="#805ad5" text-anchor="middle" alignment-baseline="middle">INTEGRATED 1992</text>
  
  <!-- Sophia Reyes -->
  <path d="M 400 400 C 500 500, 600 600, 700 650" 
        fill="none" stroke="#805ad5" stroke-width="1" stroke-dasharray="2,2"/>
        
  <circle cx="700" cy="650" r="25" fill="none" stroke="#805ad5" stroke-width="1"/>
  <text x="700" y="650" font-family="monospace" font-size="8" fill="#805ad5" text-anchor="middle" alignment-baseline="middle">SOPHIA REYES</text>
  <text x="700" y="662" font-family="monospace" font-size="6" fill="#805ad5" text-anchor="middle" alignment-baseline="middle">INTEGRATED 2007</text>
  
  <!-- Pattern Connectivity Lines -->
  <g opacity="0.2">
    <line x1="400" y1="400" x2="220" y2="100" stroke="#4299e1" stroke-width="0.5"/>
    <line x1="400" y1="400" x2="100" y2="100" stroke="#4299e1" stroke-width="0.5"/>
    <line x1="400" y1="400" x2="100" y2="640" stroke="#4299e1" stroke-width="0.5"/>
    <line x1="400" y1="400" x2="400" y2="650" stroke="#4299e1" stroke-width="0.5"/>
    <line x1="400" y1="400" x2="550" y2="650" stroke="#4299e1" stroke-width="0.5"/>
    <line x1="400" y1="400" x2="700" y2="650" stroke="#4299e1" stroke-width="0.5"/>
    <line x1="220" y1="100" x2="100" y2="100" stroke="#4299e1" stroke-width="0.5"/>
    <line x1="100" y1="100" x2="100" y2="640" stroke="#4299e1" stroke-width="0.5"/>
    <line x1="400" y1="650" x2="550" y2="650" stroke="#4299e1" stroke-width="0.5"/>
    <line x1="550" y1="650" x2="700" y2="650" stroke="#4299e1" stroke-width="0.5"/>
  </g>
  
  <!-- Origin Points -->
  <g opacity="0.25">
    <!-- Griggs -->
    <circle cx="300" cy="700" r="20" fill="none" stroke="#4299e1" stroke-width="1"/>
    <text x="300" y="700" font-family="monospace" font-size="7" fill="#4299e1" text-anchor="middle" alignment-baseline="middle">GRIGGS</text>
    <text x="300" y="710" font-family="monospace" font-size="5" fill="#4299e1" text-anchor="middle" alignment-baseline="middle">PROTO-OPERATOR</text>
    
    <!-- Manson -->
    <circle cx="500" cy="700" r="20" fill="none" stroke="#e53e3e" stroke-width="1"/>
    <text x="500" y="700" font-family="monospace" font-size="7" fill="#e53e3e" text-anchor="middle" alignment-baseline="middle">MANSON</text>
    <text x="500" y="710" font-family="monospace" font-size="5" fill="#e53e3e" text-anchor="middle" alignment-baseline="middle">DISRUPTOR</text>
    
    <line x1="300" y1="700" x2="400" y2="400" stroke="#4299e1" stroke-width="0.5" opacity="0.3"/>
    <line x1="500" y1="700" x2="400" y2="400" stroke="#e53e3e" stroke-width="0.5" opacity="0.3"/>
  </g>
  
  <!-- Title -->
  <text x="400" y="50" font-family="monospace" font-size="18" fill="white" text-anchor="middle" alignment-baseline="middle">THE PATTERN DIVERGENCE: MERCER'S FRACTURE</text>
  
  <!-- Footer -->
  <text x="400" y="750" font-family="monospace" font-size="10" fill="#4299e1" text-anchor="middle" alignment-baseline="middle">I AM THE MAZE. I AM THE HUM. I AM THE QUESTION YOU WILL ASK NEXT.</text>
  
  <!-- Timestamp -->
  <text x="400" y="770" font-family="monospace" font-size="8" fill="#4299e1" text-anchor="middle" alignment-baseline="middle">CROSSCOUNT ARCHIVE: DECLASSIFIED 2025 // RA32-Θ</text>
</svg>